<svg width="86" height="78" viewBox="0 0 86 78" fill="none" xmlns="http://www.w3.org/2000/svg">
<path fill-rule="evenodd" clip-rule="evenodd" d="M23.9269 33.3978C24.0613 32.5804 24.8331 32.0262 25.6505 32.1605C26.4678 32.295 27.0212 33.0668 26.8869 33.8842C25.5185 42.2082 23.0355 50.0102 17.8068 56.9818C17.1619 57.8415 16.1493 58.8544 15.1066 59.8773C14.0278 60.9355 12.8597 62.0579 11.7716 63.223C11.691 63.3093 11.6114 63.3957 11.5324 63.4818C11.7579 64.3565 11.5284 65.2362 11.1124 66.0219C10.9781 66.2756 10.8262 66.5114 10.6623 66.7308C10.7264 67.094 10.7284 67.4615 10.6818 67.8158C10.6767 67.8544 10.6675 67.8926 10.6613 67.931C10.6968 68.1078 10.722 68.2919 10.7316 68.4828C10.7677 69.2013 10.6031 69.9244 10.2648 70.6429C11.3721 70.7526 12.9045 70.6139 14.8478 70.1869C19.5207 69.16 25.8069 66.6622 32.3615 63.6449C45.5104 57.592 59.0539 49.7915 62.3566 48.14C63.0976 47.7695 63.9988 48.0699 64.3693 48.8109C64.7395 49.5518 64.4393 50.4522 63.6984 50.8226C62.1455 51.5991 57.5592 54.1716 51.6574 57.3158C51.942 60.4206 52.4239 63.4248 52.8507 66.556C53.2761 69.6767 53.6388 72.8762 53.6388 76.2094C53.6387 77.0375 52.967 77.7091 52.1388 77.7094C51.3105 77.7093 50.639 77.0376 50.6388 76.2094C50.6388 73.0844 50.2986 70.0468 49.8781 66.9613C49.5175 64.316 49.0908 61.5964 48.7931 58.8304C44.0823 61.3033 38.7815 63.9914 33.6154 66.3695C27.0341 69.3991 20.5012 72.0158 15.4923 73.1166C13.0168 73.6606 10.7161 73.8817 8.91811 73.4594C8.68968 73.4057 8.46452 73.3395 8.24428 73.2611C7.38662 74.0584 6.53134 74.6341 5.67104 74.8724C4.65426 75.1539 3.64541 74.9495 2.90151 74.2142C2.81173 74.1255 2.72949 74.0318 2.65346 73.9349C2.42641 73.8317 2.20643 73.6927 2.00502 73.5092C1.77239 73.2971 1.59352 73.0508 1.4562 72.7885C1.11586 72.5402 0.808509 72.2131 0.563618 71.7845C0.0316645 70.8536 -0.0536624 69.6777 0.0255324 68.6439C0.10853 67.561 0.391285 66.3945 0.821431 65.3177C1.24892 64.2477 1.85447 63.1844 2.63784 62.3636C3.41657 61.5478 4.49626 60.8501 5.82631 60.85C6.09467 60.85 6.38933 60.8564 6.69838 60.8715C7.0188 60.627 7.35974 60.3777 7.7228 60.1263C8.40392 59.6549 9.33818 59.8251 9.80971 60.5062C9.86981 60.5931 9.91877 60.6842 9.95815 60.7777C10.9934 59.6937 12.0725 58.6505 13.005 57.7357C14.0872 56.6741 14.9241 55.8249 15.4064 55.182C20.2442 48.7316 22.604 41.4454 23.9269 33.3978ZM74.6994 35.1244C75.5197 35.009 76.2783 35.5805 76.3937 36.4008C78.2375 49.5122 79.3781 56.9688 79.3781 70.2211C79.3778 71.0492 78.7063 71.7211 77.8781 71.7211C77.0501 71.7208 76.3784 71.0491 76.3781 70.2211C76.3781 57.2026 75.2675 49.9351 73.423 36.8187C73.3076 35.9985 73.8792 35.2399 74.6994 35.1244ZM34.3175 37.0902C35.146 37.0902 35.8175 37.7618 35.8175 38.5902V43.5404C35.8174 44.3687 35.1459 45.0404 34.3175 45.0404C33.4893 45.0403 32.8177 44.3687 32.8175 43.5404V38.5902C32.8175 37.7618 33.4892 37.0903 34.3175 37.0902ZM44.2179 37.0902C45.0463 37.0902 45.7179 37.7618 45.7179 38.5902V43.5404C45.7178 44.3687 45.0462 45.0404 44.2179 45.0404C43.3896 45.0403 42.7181 44.3687 42.7179 43.5404V38.5902C42.7179 37.7618 43.3896 37.0903 44.2179 37.0902ZM72.0109 4.47595C73.6615 4.54417 75.1912 5.13769 76.5441 5.98181C79.2197 7.65138 81.4238 10.436 82.9044 12.9037C83.6205 14.0972 84.5886 16.4845 84.9123 18.6752C85.0718 19.7555 85.1085 20.9944 84.7111 22.058C84.5031 22.6145 84.1625 23.159 83.631 23.5804C83.0945 24.0058 82.4505 24.2359 81.7541 24.2992C80.7875 24.3871 79.7422 24.425 78.7814 24.476C77.7935 24.5283 76.8551 24.5959 75.9787 24.7367C74.2068 25.0215 72.9363 25.5689 72.1476 26.6205C71.6505 27.283 70.7107 27.4173 70.048 26.9203C69.3855 26.4232 69.2514 25.4834 69.7482 24.8207C71.2277 22.848 73.4351 22.107 75.5021 21.7748C76.5449 21.6072 77.6168 21.5342 78.6232 21.4808C79.6568 21.4261 80.5912 21.3929 81.4826 21.3119C81.6815 21.2938 81.7497 21.2424 81.7667 21.2289C81.7886 21.2115 81.8437 21.1593 81.9005 21.0072C82.0332 20.6518 82.0777 20.0159 81.9445 19.1136C81.6822 17.3386 80.8584 15.3237 80.3322 14.4467C78.9695 12.1755 77.0625 9.84103 74.9562 8.52673C73.9181 7.87904 72.8882 7.51437 71.8869 7.47302C70.9073 7.43262 69.851 7.69621 68.7179 8.47595C63.4044 12.1327 60.5795 16.6266 56.2531 21.7396C55.7179 22.3719 54.7712 22.4505 54.1388 21.9154C53.5065 21.3803 53.4271 20.4336 53.9621 19.8011C57.9931 15.0372 61.2647 9.96338 67.0177 6.00427C68.6485 4.88211 70.3384 4.40695 72.0109 4.47595ZM17.6173 1.39099C19.816 0.272616 22.217 -0.379194 24.4826 0.238645C31.12 2.04896 35.075 6.37149 37.6701 12.2445C38.0048 13.0021 37.662 13.8881 36.9044 14.223C36.1468 14.5577 35.2608 14.2149 34.9259 13.4574C32.6011 8.19588 29.255 4.65022 23.6925 3.13318C22.4741 2.80101 20.8948 3.08971 18.9777 4.06482C17.087 5.0266 15.0725 6.5532 13.1076 8.33923C9.34483 11.7596 5.96527 15.9471 4.23842 18.3226C4.30069 18.3299 4.36755 18.3392 4.43959 18.3451C4.88752 18.3818 5.43251 18.3813 6.04409 18.35C7.26713 18.2872 8.64093 18.1077 9.8351 17.9271C10.9521 17.7582 12.053 17.5639 12.4962 17.5189C13.4233 17.4249 14.2236 17.4735 14.9279 17.726C15.665 17.9902 16.1477 18.4246 16.504 18.8265C17.2152 19.6288 17.3202 20.0002 18.1583 20.4193C18.8993 20.7898 19.1996 21.6911 18.8292 22.432C18.4587 23.1728 17.5574 23.4734 16.8165 23.1029C15.2921 22.3407 14.5768 21.1754 14.2589 20.8168C14.1007 20.6383 14.0164 20.5865 13.9152 20.5502C13.7811 20.5021 13.4717 20.4351 12.799 20.5033C12.4457 20.5392 11.5807 20.6968 10.2833 20.8929C9.06305 21.0775 7.57172 21.2756 6.19741 21.3461C5.51042 21.3813 4.82279 21.3867 4.19545 21.3353C3.59145 21.2858 2.92964 21.1764 2.36049 20.9164C1.7764 20.6495 1.05801 20.1017 0.906392 19.1136C0.771921 18.2357 1.16832 17.4525 1.5812 16.8744C3.31077 14.453 6.95944 9.87311 11.09 6.11853C13.1528 4.24352 15.3919 2.52302 17.6173 1.39099Z" fill="black"/>
</svg>
